<svg width="26" height="25" viewBox="0 0 26 25" fill="none" xmlns="http://www.w3.org/2000/svg">
<rect x="0.810822" y="0.243286" width="24.3243" height="24.3243" rx="4.86486" fill="#336AE9"/>
<path d="M5.05877 16.662C4.89426 16.662 4.75324 16.5994 4.63574 16.4742C4.51823 16.349 4.45947 16.1987 4.45947 16.0234V15.6101C4.45947 15.0967 4.70624 14.6866 5.19978 14.3798C5.69332 14.073 6.34549 13.9196 7.1563 13.9196C7.27381 13.9196 7.39425 13.9227 7.51764 13.929C7.64102 13.9352 7.75559 13.9446 7.86135 13.9571C7.76735 14.1825 7.69684 14.4142 7.64984 14.6521C7.60283 14.8901 7.57933 15.1405 7.57933 15.4035V16.662H5.05877ZM18.3666 16.662V15.4035C18.3666 15.1405 18.3431 14.8901 18.2961 14.6521C18.2491 14.4142 18.1786 14.1825 18.0846 13.9571C18.1904 13.9446 18.3049 13.9352 18.4283 13.929C18.5517 13.9227 18.6722 13.9196 18.7897 13.9196C19.5887 13.9196 20.238 14.073 20.7374 14.3798C21.2368 14.6866 21.4865 15.0967 21.4865 15.6101V16.0234C21.4865 16.1987 21.4277 16.349 21.3102 16.4742C21.1927 16.5994 21.0517 16.662 20.8872 16.662H18.3666ZM7.1563 13.3748C6.80377 13.3748 6.50413 13.2433 6.25736 12.9804C6.01059 12.7174 5.8872 12.3981 5.8872 12.0224C5.8872 11.6467 6.01059 11.3274 6.25736 11.0644C6.50413 10.8014 6.80377 10.6699 7.1563 10.6699C7.50883 10.6699 7.80847 10.8014 8.05524 11.0644C8.30201 11.3274 8.4254 11.6467 8.4254 12.0224C8.4254 12.3981 8.30201 12.7174 8.05524 12.9804C7.80847 13.2433 7.50883 13.3748 7.1563 13.3748ZM18.7897 13.3748C18.4371 13.3748 18.1375 13.2433 17.8907 12.9804C17.644 12.7174 17.5206 12.3981 17.5206 12.0224C17.5206 11.6467 17.644 11.3274 17.8907 11.0644C18.1375 10.8014 18.4371 10.6699 18.7897 10.6699C19.1422 10.6699 19.4418 10.8014 19.6886 11.0644C19.9354 11.3274 20.0588 11.6467 20.0588 12.0224C20.0588 12.3981 19.9354 12.7174 19.6886 12.9804C19.4418 13.2433 19.1422 13.3748 18.7897 13.3748Z" fill="white"/>
<path d="M8.86602 16.4742C8.98353 16.5994 9.12454 16.6621 9.28905 16.6621H16.6569C16.8214 16.6621 16.9624 16.5994 17.0799 16.4742C17.1974 16.349 17.2562 16.1987 17.2562 16.0234V15.4035C17.2562 14.577 16.8625 13.9039 16.0752 13.3842C15.2879 12.8645 14.2538 12.6047 12.973 12.6047C11.6921 12.6047 10.658 12.8645 9.87072 13.3842C9.08341 13.9039 8.68976 14.577 8.68976 15.4035V16.0234C8.68976 16.1987 8.74851 16.349 8.86602 16.4742Z" fill="white"/>
<path d="M11.4395 11.3743C11.8625 11.8189 12.3737 12.0412 12.973 12.0412C13.5722 12.0412 14.0834 11.8189 14.5064 11.3743C14.9295 10.9298 15.141 10.3819 15.141 9.73074C15.141 9.09208 14.9295 8.55048 14.5064 8.10592C14.0834 7.66136 13.5722 7.43909 12.973 7.43909C12.3737 7.43909 11.8625 7.66136 11.4395 8.10592C11.0164 8.55048 10.8049 9.09208 10.8049 9.73074C10.8049 10.3819 11.0164 10.9298 11.4395 11.3743Z" fill="white"/>
</svg>
