<svg width="24" height="24" viewBox="0 0 24 24" fill="none" xmlns="http://www.w3.org/2000/svg">
<mask id="mask0_220_1515" style="mask-type:alpha" maskUnits="userSpaceOnUse" x="0" y="0" width="24" height="24">
<rect width="24" height="24" fill="#D9D9D9"/>
</mask>
<g mask="url(#mask0_220_1515)">
<path d="M3.60425 19.192V9.89926C3.60425 9.5506 3.67975 9.22135 3.83075 8.91151C3.98191 8.60151 4.19775 8.34343 4.47825 8.13726L10.6702 3.48626C11.0586 3.1886 11.5009 3.03976 11.9972 3.03976C12.4937 3.03976 12.9379 3.1886 13.3297 3.48626L19.5217 8.13726C19.8022 8.34343 20.0196 8.60151 20.1737 8.91151C20.3279 9.22135 20.405 9.5506 20.405 9.89926V19.192C20.405 19.8073 20.19 20.3284 19.76 20.7553C19.33 21.1823 18.8073 21.3958 18.192 21.3958H15.196C14.8877 21.3958 14.6269 21.2892 14.4137 21.076C14.2007 20.8628 14.0942 20.6021 14.0942 20.2938V15.0075C14.0942 14.6992 13.9877 14.4385 13.7745 14.2255C13.5615 14.0123 13.3008 13.9058 12.9925 13.9058H11.0075C10.6992 13.9058 10.4385 14.0123 10.2255 14.2255C10.0123 14.4385 9.90575 14.6992 9.90575 15.0075V20.2938C9.90575 20.6021 9.79925 20.8628 9.58625 21.076C9.37308 21.2892 9.11233 21.3958 8.804 21.3958H5.808C5.19266 21.3958 4.67158 21.1823 4.24475 20.7553C3.81775 20.3284 3.60425 19.8073 3.60425 19.192Z" fill="#5F738C"/>
</g>
</svg>
