<svg width="24" height="24" viewBox="0 0 24 24" fill="none" xmlns="http://www.w3.org/2000/svg">
<path d="M0.84472 18C0.612836 18 0.414079 17.9117 0.248447 17.7352C0.0828157 17.5587 0 17.3469 0 17.0997V16.5173C0 15.7936 0.347826 15.2155 1.04348 14.783C1.73913 14.3506 2.65839 14.1344 3.80124 14.1344C3.96687 14.1344 4.13665 14.1388 4.31056 14.1476C4.48447 14.1564 4.64596 14.1697 4.79503 14.1873C4.66253 14.505 4.56315 14.8316 4.49689 15.167C4.43064 15.5023 4.39752 15.8553 4.39752 16.226V18H0.84472ZM19.6025 18V16.226C19.6025 15.8553 19.5694 15.5023 19.5031 15.167C19.4369 14.8316 19.3375 14.505 19.205 14.1873C19.354 14.1697 19.5155 14.1564 19.6894 14.1476C19.8634 14.1388 20.0331 14.1344 20.1988 14.1344C21.3251 14.1344 22.2402 14.3506 22.9441 14.783C23.648 15.2155 24 15.7936 24 16.5173V17.0997C24 17.3469 23.9172 17.5587 23.7516 17.7352C23.5859 17.9117 23.3872 18 23.1553 18H19.6025ZM3.80124 13.3666C3.30435 13.3666 2.88199 13.1812 2.53416 12.8105C2.18634 12.4399 2.01242 11.9898 2.01242 11.4602C2.01242 10.9307 2.18634 10.4806 2.53416 10.1099C2.88199 9.73926 3.30435 9.55392 3.80124 9.55392C4.29814 9.55392 4.7205 9.73926 5.06832 10.1099C5.41615 10.4806 5.59006 10.9307 5.59006 11.4602C5.59006 11.9898 5.41615 12.4399 5.06832 12.8105C4.7205 13.1812 4.29814 13.3666 3.80124 13.3666ZM20.1988 13.3666C19.7019 13.3666 19.2795 13.1812 18.9317 12.8105C18.5839 12.4399 18.4099 11.9898 18.4099 11.4602C18.4099 10.9307 18.5839 10.4806 18.9317 10.1099C19.2795 9.73926 19.7019 9.55392 20.1988 9.55392C20.6957 9.55392 21.118 9.73926 21.4658 10.1099C21.8137 10.4806 21.9876 10.9307 21.9876 11.4602C21.9876 11.9898 21.8137 12.4399 21.4658 12.8105C21.118 13.1812 20.6957 13.3666 20.1988 13.3666Z" fill="#5F738C"/>
<path d="M6.21115 17.7352C6.37679 17.9117 6.57554 18 6.80743 18H17.1925C17.4244 18 17.6232 17.9117 17.7888 17.7352C17.9544 17.5587 18.0372 17.3469 18.0372 17.0998V16.2261C18.0372 15.0611 17.4824 14.1124 16.3726 13.3798C15.2629 12.6473 13.8054 12.2811 12 12.2811C10.1946 12.2811 8.73703 12.6473 7.6273 13.3798C6.51757 14.1124 5.96271 15.0611 5.96271 16.2261V17.0998C5.96271 17.3469 6.04552 17.5587 6.21115 17.7352Z" fill="#5F738C"/>
<path d="M9.83848 10.5468C10.4348 11.1735 11.1553 11.4868 12 11.4868C12.8447 11.4868 13.5652 11.1735 14.1615 10.5468C14.7577 9.92023 15.0559 9.148 15.0559 8.23014C15.0559 7.32994 14.7577 6.56653 14.1615 5.93992C13.5652 5.31331 12.8447 5 12 5C11.1553 5 10.4348 5.31331 9.83848 5.93992C9.24221 6.56653 8.94407 7.32994 8.94407 8.23014C8.94407 9.148 9.24221 9.92023 9.83848 10.5468Z" fill="#5F738C"/>
</svg>
