<svg width="53" height="53" viewBox="0 0 53 53" fill="none" xmlns="http://www.w3.org/2000/svg">
<path d="M16.1206 27.0915C17.1992 27.8121 18.4673 28.1968 19.7644 28.1968C21.5033 28.1949 23.1704 27.5032 24.4 26.2737C25.6295 25.0441 26.3212 23.377 26.3231 21.6381C26.3231 20.3409 25.9384 19.0729 25.2178 17.9943C24.4971 16.9158 23.4728 16.0751 22.2743 15.5787C21.0759 15.0823 19.7572 14.9524 18.4849 15.2055C17.2127 15.4586 16.044 16.0832 15.1268 17.0005C14.2095 17.9177 13.5849 19.0863 13.3318 20.3586C13.0787 21.6309 13.2086 22.9496 13.705 24.148C14.2014 25.3465 15.0421 26.3708 16.1206 27.0915Z" fill="#5F738C"/>
<path d="M10.2908 44.2291H29.2381C29.6246 44.2291 29.9953 44.0755 30.2687 43.8022C30.542 43.5288 30.6955 43.1581 30.6955 42.7716V42.0428C30.6955 39.1437 29.5439 36.3634 27.4939 34.3134C25.4439 32.2634 22.6635 31.1117 19.7644 31.1117C16.8653 31.1117 14.085 32.2634 12.035 34.3134C9.98501 36.3634 8.83334 39.1437 8.83334 42.0428V42.7716C8.83334 43.1581 8.9869 43.5288 9.26023 43.8022C9.53356 44.0755 9.90428 44.2291 10.2908 44.2291Z" fill="#5F738C"/>
<path d="M34.6931 21.9507C33.3959 21.9507 32.1278 21.566 31.0493 20.8454C29.9707 20.1247 29.1301 19.1004 28.6336 17.9019C28.1372 16.7035 28.0074 15.3848 28.2604 14.1125C28.5135 12.8402 29.1381 11.6716 30.0554 10.7544C30.9726 9.83712 32.1413 9.21247 33.4135 8.9594C34.6858 8.70633 36.0045 8.83622 37.2029 9.33263C38.4014 9.82903 39.4257 10.6697 40.1464 11.7482C40.8671 12.8268 41.2517 14.0949 41.2517 15.392C41.2498 17.1309 40.5582 18.798 39.3286 20.0276C38.099 21.2571 36.4319 21.9488 34.6931 21.9507ZM32.622 24.8963C31.2645 25.0784 29.9593 25.5389 28.7881 26.2489C27.6169 26.9589 26.6049 27.9031 25.8156 29.0224C29.0816 30.5056 31.6478 33.194 32.9776 36.5255H42.7092C43.0957 36.5255 43.4665 36.3719 43.7398 36.0986C44.0131 35.8253 44.1667 35.4546 44.1667 35.068V35.0126C44.1652 33.5598 43.8538 32.124 43.2532 30.8012C42.6527 29.4783 41.7769 28.2987 40.6842 27.3413C39.5915 26.3838 38.3072 25.6704 36.9169 25.2488C35.5266 24.8272 34.0624 24.707 32.622 24.8963Z" fill="#CCD0EE"/>
</svg>
