<svg width="37" height="40" viewBox="0 0 37 40" fill="none" xmlns="http://www.w3.org/2000/svg">
<path d="M27.75 26.6667C30.6651 26.6667 33.0357 24.2747 33.0357 21.3333C33.0357 18.392 30.6651 16 27.75 16C24.8349 16 22.4643 18.392 22.4643 21.3333C22.4643 24.2747 24.8349 26.6667 27.75 26.6667ZM27.75 18.6667C29.2075 18.6667 30.3929 19.8627 30.3929 21.3333C30.3929 22.804 29.2075 24 27.75 24C26.2925 24 25.1071 22.804 25.1071 21.3333C25.1071 19.8627 26.2925 18.6667 27.75 18.6667ZM37 37.0667C37 37.804 36.408 38.4 35.6786 38.4C34.9491 38.4 34.3571 37.804 34.3571 37.0667C34.3571 33.3907 31.3932 30.4 27.75 30.4C24.1068 30.4 21.1429 33.3907 21.1429 37.0667C21.1429 37.804 20.5509 38.4 19.8214 38.4C19.092 38.4 18.5 37.804 18.5 37.0667C18.5 31.9213 22.6493 27.7333 27.75 27.7333C32.8507 27.7333 37 31.9213 37 37.0667Z" fill="#5F738C"/>
<path d="M9.25 3.2C8.02338 3.2 6.84699 3.70571 5.97963 4.60589C5.11228 5.50606 4.625 6.72696 4.625 8V36.8C4.625 37.2243 4.46258 37.6313 4.17346 37.9314C3.88434 38.2314 3.49221 38.4 3.08333 38.4C2.67446 38.4 2.28233 38.2314 1.99321 37.9314C1.70409 37.6313 1.54167 37.2243 1.54167 36.8V8C1.54412 5.87905 2.35703 3.84569 3.80209 2.34595C5.24715 0.846211 7.20638 0.00254057 9.25 0L18.5 0C20.5436 0.00254057 22.5028 0.846211 23.9479 2.34595C25.393 3.84569 26.2059 5.87905 26.2083 8V11.2C26.2083 11.6243 26.0459 12.0313 25.7568 12.3314C25.4677 12.6314 25.0755 12.8 24.6667 12.8C24.2578 12.8 23.8657 12.6314 23.5765 12.3314C23.2874 12.0313 23.125 11.6243 23.125 11.2V8C23.125 6.72696 22.6377 5.50606 21.7704 4.60589C20.903 3.70571 19.7266 3.2 18.5 3.2H9.25ZM12.3333 8V9.6C12.3333 10.0243 12.1709 10.4313 11.8818 10.7314C11.5927 11.0314 11.2005 11.2 10.7917 11.2H9.25C8.84113 11.2 8.449 11.0314 8.15988 10.7314C7.87076 10.4313 7.70833 10.0243 7.70833 9.6V8C7.70833 7.57565 7.87076 7.16869 8.15988 6.86863C8.449 6.56857 8.84113 6.4 9.25 6.4H10.7917C11.2005 6.4 11.5927 6.56857 11.8818 6.86863C12.1709 7.16869 12.3333 7.57565 12.3333 8ZM12.3333 16V17.6C12.3333 18.0243 12.1709 18.4313 11.8818 18.7314C11.5927 19.0314 11.2005 19.2 10.7917 19.2H9.25C8.84113 19.2 8.449 19.0314 8.15988 18.7314C7.87076 18.4313 7.70833 18.0243 7.70833 17.6V16C7.70833 15.5757 7.87076 15.1687 8.15988 14.8686C8.449 14.5686 8.84113 14.4 9.25 14.4H10.7917C11.2005 14.4 11.5927 14.5686 11.8818 14.8686C12.1709 15.1687 12.3333 15.5757 12.3333 16ZM12.3333 24V25.6C12.3333 26.0243 12.1709 26.4313 11.8818 26.7314C11.5927 27.0314 11.2005 27.2 10.7917 27.2H9.25C8.84113 27.2 8.449 27.0314 8.15988 26.7314C7.87076 26.4313 7.70833 26.0243 7.70833 25.6V24C7.70833 23.5757 7.87076 23.1687 8.15988 22.8686C8.449 22.5686 8.84113 22.4 9.25 22.4H10.7917C11.2005 22.4 11.5927 22.5686 11.8818 22.8686C12.1709 23.1687 12.3333 23.5757 12.3333 24ZM12.3333 32V33.6C12.3333 34.0243 12.1709 34.4313 11.8818 34.7314C11.5927 35.0314 11.2005 35.2 10.7917 35.2H9.25C8.84113 35.2 8.449 35.0314 8.15988 34.7314C7.87076 34.4313 7.70833 34.0243 7.70833 33.6V32C7.70833 31.5757 7.87076 31.1687 8.15988 30.8686C8.449 30.5686 8.84113 30.4 9.25 30.4H10.7917C11.2005 30.4 11.5927 30.5686 11.8818 30.8686C12.1709 31.1687 12.3333 31.5757 12.3333 32ZM18.5 6.4C18.9089 6.4 19.301 6.56857 19.5901 6.86863C19.8792 7.16869 20.0417 7.57565 20.0417 8V9.6C20.0417 10.0243 19.8792 10.4313 19.5901 10.7314C19.301 11.0314 18.9089 11.2 18.5 11.2H16.9583C16.5495 11.2 16.1573 11.0314 15.8682 10.7314C15.5791 10.4313 15.4167 10.0243 15.4167 9.6V8C15.4167 7.57565 15.5791 7.16869 15.8682 6.86863C16.1573 6.56857 16.5495 6.4 16.9583 6.4H18.5Z" fill="#CCD0EE"/>
<path d="M19.5901 14.8686C19.301 14.5686 18.9089 14.4 18.5 14.4H16.9583C16.5495 14.4 16.1573 14.5686 15.8682 14.8686C15.5791 15.1687 15.4167 15.5757 15.4167 16V17.6C15.4167 18.0243 15.5791 18.4313 15.8682 18.7314C16.1573 19.0314 16.5495 19.2 16.9583 19.2H18.5C18.9089 19.2 19.301 19.0314 19.5901 18.7314C19.8792 18.4313 20.0417 18.0243 20.0417 17.6V16C20.0417 15.5757 19.8792 15.1687 19.5901 14.8686Z" fill="#CCD0EE"/>
<path d="M19.5901 22.8686C19.301 22.5686 18.9089 22.4 18.5 22.4H16.9583C16.5495 22.4 16.1573 22.5686 15.8682 22.8686C15.5791 23.1687 15.4167 23.5757 15.4167 24V25.6C15.4167 26.0243 15.5791 26.4313 15.8682 26.7314C16.1573 27.0314 16.5495 27.2 16.9583 27.2H18.5C18.9089 27.2 19.301 27.0314 19.5901 26.7314C19.8792 26.4313 20.0417 26.0243 20.0417 25.6V24C20.0417 23.5757 19.8792 23.1687 19.5901 22.8686Z" fill="#CCD0EE"/>
</svg>
