<svg width="75" height="75" viewBox="0 0 75 75" fill="none" xmlns="http://www.w3.org/2000/svg">
<mask id="mask0_252_1087" style="mask-type:alpha" maskUnits="userSpaceOnUse" x="0" y="0" width="75" height="75">
<rect width="75" height="75" fill="#D9D9D9"/>
</mask>
<g mask="url(#mask0_252_1087)">
<path d="M6.25008 37.5C6.25008 29.861 8.65034 23.2029 13.4509 17.5258C18.2509 11.8487 24.2535 8.29846 31.4587 6.87502C32.3264 6.68387 33.0641 6.78804 33.672 7.18752C34.2798 7.587 34.5837 8.19455 34.5837 9.01018C34.5837 9.87841 34.3058 10.5685 33.7501 11.0805C33.1943 11.593 32.4652 11.9534 31.5626 12.1617C25.7813 13.5159 20.9852 16.5149 17.1743 21.1586C13.3639 25.8029 11.4587 31.25 11.4587 37.5C11.4587 39.9651 11.7884 42.3219 12.4477 44.5703C13.1076 46.8188 14.0279 48.9237 15.2087 50.8852C15.6597 51.6321 15.8811 52.3612 15.8727 53.0727C15.8639 53.7847 15.547 54.4532 14.922 55.0782C14.349 55.6511 13.724 55.8854 13.047 55.7813C12.3699 55.6771 11.8055 55.2779 11.354 54.5836C9.70502 52.0836 8.442 49.4055 7.56492 46.5492C6.68836 43.6935 6.25008 40.6771 6.25008 37.5ZM37.5001 68.75C34.2188 68.75 31.0808 68.2727 28.086 67.318C25.0912 66.3628 22.3264 65.0086 19.7915 63.2555C19.1493 62.8039 18.7847 62.2352 18.6977 61.5492C18.6113 60.8638 18.8285 60.2347 19.3493 59.6617C19.9222 59.0367 20.5904 58.7414 21.354 58.7758C22.118 58.8107 22.8561 59.0539 23.568 59.5055C25.6165 60.8076 27.804 61.8058 30.1305 62.5C32.4566 63.1943 34.9131 63.5414 37.5001 63.5414C40.0871 63.5414 42.5524 63.1857 44.8962 62.4742C47.2399 61.7623 49.436 60.7552 51.4845 59.4532C52.1964 59.0016 52.9342 58.7542 53.6977 58.711C54.4618 58.6677 55.1303 58.9586 55.7032 59.5836C56.2589 60.1565 56.4759 60.7987 56.354 61.5102C56.2326 62.2222 55.8334 62.8039 55.1563 63.2555C52.6214 64.9742 49.8654 66.3196 46.8884 67.2914C43.9108 68.2638 40.7813 68.75 37.5001 68.75ZM68.7501 37.5C68.7501 40.6771 68.3118 43.6935 67.4352 46.5492C66.5582 49.4055 65.3123 52.0836 63.6977 54.5836C63.2467 55.2779 62.6826 55.6771 62.0056 55.7813C61.3285 55.8854 60.7035 55.6511 60.1305 55.0782C59.5055 54.4532 59.1886 53.7847 59.1798 53.0727C59.1709 52.3612 59.3923 51.6321 59.8438 50.8852C61.0246 48.9237 61.936 46.8188 62.5782 44.5703C63.2204 42.3219 63.5415 39.9651 63.5415 37.5C63.5415 31.2849 61.6535 25.8466 57.8774 21.1852C54.1014 16.5237 49.3055 13.5159 43.4899 12.1617C42.5868 11.9534 41.8576 11.593 41.3024 11.0805C40.7467 10.5685 40.4688 9.87841 40.4688 9.01018C40.4688 8.19455 40.7727 7.587 41.3805 7.18752C41.9878 6.78804 42.7256 6.68387 43.5938 6.87502C50.7985 8.29846 56.7925 11.8487 61.5759 17.5258C66.3587 23.2029 68.7501 29.861 68.7501 37.5ZM30.0524 48.2031V25.7555C30.0524 25.2347 30.2738 24.8526 30.7165 24.6094C31.1592 24.3662 31.6061 24.3922 32.0571 24.6875L49.5837 35.8594C49.9826 36.137 50.1821 36.5102 50.1821 36.9789C50.1821 37.4477 49.9826 37.8211 49.5837 38.0992L32.0571 49.2711C31.6061 49.5659 31.1592 49.5919 30.7165 49.3492C30.2738 49.106 30.0524 48.724 30.0524 48.2031Z" fill="white"/>
</g>
</svg>
