<svg width="16" height="21" viewBox="0 0 16 21" fill="none" xmlns="http://www.w3.org/2000/svg">
<path d="M8 7.62574C6.98017 7.62574 6.11383 7.26924 5.401 6.55624C4.688 5.8434 4.3315 4.97499 4.3315 3.95099C4.3315 2.92715 4.688 2.05924 5.401 1.34724C6.11383 0.635237 6.98017 0.279236 8 0.279236C9.01983 0.279236 9.88617 0.635237 10.599 1.34724C11.312 2.05924 11.6685 2.92715 11.6685 3.95099C11.6685 4.97499 11.312 5.8434 10.599 6.55624C9.88617 7.26924 9.01983 7.62574 8 7.62574ZM6.44825 20.1687L1.70325 15.438C1.36075 15.0892 1.092 14.6744 0.896998 14.1937C0.701832 13.7129 0.604248 13.1672 0.604248 12.5565C0.604248 11.5053 0.976248 10.6077 1.72025 9.86374C2.46425 9.11974 3.36408 8.74774 4.41975 8.74774C4.91792 8.74774 5.38441 8.85365 5.81925 9.06549C6.25408 9.27715 6.64658 9.55807 6.99675 9.90824L8 10.9115L9.00325 9.90824C9.34092 9.57057 9.73025 9.29274 10.1712 9.07474C10.6124 8.85674 11.0821 8.74774 11.5802 8.74774C12.6359 8.74774 13.5373 9.11974 14.2845 9.86374C15.0315 10.6077 15.405 11.5053 15.405 12.5565C15.405 13.1672 15.3059 13.7129 15.1077 14.1937C14.9096 14.6744 14.6392 15.0892 14.2968 15.438L9.55175 20.1687C9.32958 20.3794 9.08458 20.537 8.81675 20.6415C8.54891 20.746 8.27641 20.7982 7.99925 20.7982C7.72191 20.7982 7.44958 20.746 7.18225 20.6415C6.91475 20.537 6.67008 20.3794 6.44825 20.1687Z" fill="#5F738C"/>
</svg>
