<svg width="24" height="24" viewBox="0 0 24 24" fill="none" xmlns="http://www.w3.org/2000/svg">
<mask id="mask0_289_1114" style="mask-type:alpha" maskUnits="userSpaceOnUse" x="0" y="0" width="24" height="24">
<rect width="24" height="24" fill="#D9D9D9"/>
</mask>
<g mask="url(#mask0_289_1114)">
<path d="M12.75 22.575L15.925 19.675C17.3917 18.2583 18.3833 17.1 18.9 16.2C19.4167 15.3 19.675 14.35 19.675 13.35C19.675 12.8667 19.5917 12.3875 19.425 11.9125C19.2583 11.4375 19 10.9417 18.65 10.425H19.425C20.3083 10.425 21.0542 10.7292 21.6625 11.3375C22.2708 11.9458 22.575 12.6917 22.575 13.575V22.575H12.75ZM1.425 22.575V13.575C1.425 12.6917 1.72917 11.9458 2.3375 11.3375C2.94583 10.7292 3.69167 10.425 4.575 10.425H5.35C5 10.9083 4.74167 11.3958 4.575 11.8875C4.40833 12.3792 4.325 12.8667 4.325 13.35C4.325 14.3833 4.56667 15.3208 5.05 16.1625C5.53333 17.0042 6.55 18.175 8.1 19.675L11.25 22.575H1.425ZM20 9.65C19.0333 9.65 18.2083 9.30833 17.525 8.625C16.8417 7.94167 16.5 7.11667 16.5 6.15C16.5 5.18333 16.8417 4.35833 17.525 3.675C18.2083 2.99167 19.0333 2.65 20 2.65C20.9667 2.65 21.7917 2.99167 22.475 3.675C23.1583 4.35833 23.5 5.18333 23.5 6.15C23.5 7.11667 23.1583 7.94167 22.475 8.625C21.7917 9.30833 20.9667 9.65 20 9.65ZM12 8C10.9 8 9.95833 7.60833 9.175 6.825C8.39167 6.04167 8 5.1 8 4C8 2.9 8.39167 1.95833 9.175 1.175C9.95833 0.391667 10.9 0 12 0C13.1 0 14.0417 0.391667 14.825 1.175C15.6083 1.95833 16 2.9 16 4C16 5.1 15.6083 6.04167 14.825 6.825C14.0417 7.60833 13.1 8 12 8ZM7.225 13.35C7.225 13.9833 7.55417 14.7125 8.2125 15.5375C8.87083 16.3625 10.1333 17.6333 12 19.35C13.85 17.6833 15.1083 16.425 15.775 15.575C16.4417 14.725 16.775 13.9833 16.775 13.35C16.775 12.7667 16.575 12.2667 16.175 11.85C15.775 11.4333 15.2833 11.225 14.7 11.225C14.3667 11.225 14.0542 11.3 13.7625 11.45C13.4708 11.6 13.2167 11.7833 13 12L12 13L11 12C10.7833 11.7833 10.5292 11.6 10.2375 11.45C9.94583 11.3 9.63333 11.225 9.3 11.225C8.71667 11.225 8.225 11.4333 7.825 11.85C7.425 12.2667 7.225 12.7667 7.225 13.35ZM4 9.65C3.03333 9.65 2.20833 9.30833 1.525 8.625C0.841667 7.94167 0.5 7.11667 0.5 6.15C0.5 5.18333 0.841667 4.35833 1.525 3.675C2.20833 2.99167 3.03333 2.65 4 2.65C4.96667 2.65 5.79167 2.99167 6.475 3.675C7.15833 4.35833 7.5 5.18333 7.5 6.15C7.5 7.11667 7.15833 7.94167 6.475 8.625C5.79167 9.30833 4.96667 9.65 4 9.65Z" fill="#FCAD09"/>
</g>
</svg>
