<svg width="24" height="24" viewBox="0 0 24 24" fill="none" xmlns="http://www.w3.org/2000/svg">
<mask id="mask0_508_1680" style="mask-type:alpha" maskUnits="userSpaceOnUse" x="0" y="0" width="24" height="24">
<rect width="24" height="24" fill="#D9D9D9"/>
</mask>
<g mask="url(#mask0_508_1680)">
<path d="M6.65 8.15C6.75 8.25 6.86667 8.3 7 8.3C7.13333 8.3 7.25 8.25 7.35 8.15L8.65 6.85C8.75 6.75 8.8 6.63333 8.8 6.5C8.8 6.36667 8.75 6.25 8.65 6.15L7.35 4.85C7.25 4.75 7.13333 4.7 7 4.7C6.86667 4.7 6.75 4.75 6.65 4.85L5.35 6.15C5.25 6.25 5.2 6.36667 5.2 6.5C5.2 6.63333 5.25 6.75 5.35 6.85L6.65 8.15ZM16.5 7C16.9167 7 17.2708 6.85417 17.5625 6.5625C17.8542 6.27083 18 5.91667 18 5.5C18 5.08333 17.8542 4.72917 17.5625 4.4375C17.2708 4.14583 16.9167 4 16.5 4C16.0833 4 15.7292 4.14583 15.4375 4.4375C15.1458 4.72917 15 5.08333 15 5.5C15 5.91667 15.1458 6.27083 15.4375 6.5625C15.7292 6.85417 16.0833 7 16.5 7ZM6 23C5.71667 23 5.47917 22.9042 5.2875 22.7125C5.09583 22.5208 5 22.2833 5 22V20.9C5 20.3167 5.1625 19.775 5.4875 19.275C5.8125 18.775 6.24167 18.4 6.775 18.15C7.59167 17.7667 8.44167 17.4792 9.325 17.2875C10.2083 17.0958 11.1 17 12 17C12.9 17 13.7917 17.0958 14.675 17.2875C15.5583 17.4792 16.4083 17.7667 17.225 18.15C17.7583 18.4 18.1875 18.775 18.5125 19.275C18.8375 19.775 19 20.3167 19 20.9V22C19 22.2833 18.9042 22.5208 18.7125 22.7125C18.5208 22.9042 18.2833 23 18 23H6ZM12 16C11.0333 16 10.2083 15.6583 9.525 14.975C8.84167 14.2917 8.5 13.4667 8.5 12.5C8.5 11.5333 8.84167 10.7083 9.525 10.025C10.2083 9.34167 11.0333 9 12 9C12.9667 9 13.7917 9.34167 14.475 10.025C15.1583 10.7083 15.5 11.5333 15.5 12.5C15.5 13.4667 15.1583 14.2917 14.475 14.975C13.7917 15.6583 12.9667 16 12 16ZM2 3C2 2.45 2.19583 1.97917 2.5875 1.5875C2.97917 1.19583 3.45 1 4 1H20C20.55 1 21.0208 1.19583 21.4125 1.5875C21.8042 1.97917 22 2.45 22 3V12C22 12.55 21.8042 13.0208 21.4125 13.4125C21.0208 13.8042 20.55 14 20 14H17.875C17.5917 14 17.3625 13.8917 17.1875 13.675C17.0125 13.4583 16.9417 13.2083 16.975 12.925C16.9917 12.775 17 12.6208 17 12.4625C17 12.3042 16.9917 12.15 16.975 12C16.8417 10.7333 16.3042 9.66667 15.3625 8.8C14.4208 7.93333 13.3 7.5 12 7.5C10.7 7.5 9.57917 7.93333 8.6375 8.8C7.69583 9.66667 7.15833 10.7333 7.025 12C7.00833 12.15 7 12.3042 7 12.4625C7 12.6208 7.00833 12.775 7.025 12.925C7.05833 13.2083 6.9875 13.4583 6.8125 13.675C6.6375 13.8917 6.40833 14 6.125 14H4C3.45 14 2.97917 13.8042 2.5875 13.4125C2.19583 13.0208 2 12.55 2 12V3Z" fill="#2E62AC"/>
</g>
</svg>
