<svg width="24" height="24" viewBox="0 0 24 24" fill="none" xmlns="http://www.w3.org/2000/svg">
<mask id="mask0_220_1517" style="mask-type:alpha" maskUnits="userSpaceOnUse" x="0" y="0" width="24" height="24">
<rect width="24" height="24" fill="#D9D9D9"/>
</mask>
<g mask="url(#mask0_220_1517)">
<path d="M5.808 22.3958C5.20066 22.3958 4.68158 22.1803 4.25075 21.7493C3.81975 21.3184 3.60425 20.7993 3.60425 20.192V3.808C3.60425 3.198 3.81975 2.67667 4.25075 2.244C4.68158 1.81134 5.20066 1.595 5.808 1.595H13.597C13.898 1.595 14.1847 1.65433 14.4572 1.773C14.7299 1.89167 14.968 2.05275 15.1715 2.25625L19.7437 6.8285C19.9473 7.032 20.1083 7.27008 20.227 7.54275C20.3457 7.81525 20.405 8.102 20.405 8.403V20.192C20.405 20.7993 20.1887 21.3184 19.756 21.7493C19.3233 22.1803 18.802 22.3958 18.192 22.3958H5.808ZM13.3752 7.47275C13.3752 7.78108 13.4818 8.04183 13.695 8.255C13.9082 8.46817 14.1689 8.57475 14.4773 8.57475H18.192L13.3752 3.808V7.47275ZM11.1667 15.0773V17.3938C11.1667 17.6299 11.2468 17.8278 11.407 17.9875C11.5673 18.1473 11.766 18.2273 12.003 18.2273C12.2398 18.2273 12.4374 18.1473 12.5957 17.9875C12.7541 17.8278 12.8332 17.6299 12.8332 17.3938V15.0773H15.1667C15.4027 15.0773 15.6007 14.9971 15.7605 14.8368C15.9202 14.6764 16 14.4778 16 14.241C16 14.004 15.9202 13.8063 15.7605 13.648C15.6007 13.4897 15.4027 13.4105 15.1667 13.4105H12.8332V11.0773C12.8332 10.8411 12.7532 10.6432 12.593 10.4835C12.4327 10.3237 12.234 10.2438 11.997 10.2438C11.7602 10.2438 11.5626 10.3237 11.4042 10.4835C11.2459 10.6432 11.1667 10.8411 11.1667 11.0773V13.4105H8.83325C8.59725 13.4105 8.39933 13.4907 8.2395 13.651C8.07983 13.8112 8 14.0098 8 14.2468C8 14.4838 8.07983 14.6814 8.2395 14.8398C8.39933 14.9981 8.59725 15.0773 8.83325 15.0773H11.1667Z" fill="#5F738C"/>
</g>
</svg>
