<svg width="18" height="22" viewBox="0 0 18 22" fill="none" xmlns="http://www.w3.org/2000/svg">
<path d="M2.808 21.3958C2.20066 21.3958 1.68158 21.1803 1.25075 20.7493C0.819748 20.3184 0.604248 19.7993 0.604248 19.192V2.808C0.604248 2.198 0.819748 1.67667 1.25075 1.244C1.68158 0.811335 2.20066 0.595001 2.808 0.595001H10.597C10.898 0.595001 11.1847 0.654334 11.4572 0.773001C11.7299 0.891668 11.968 1.05275 12.1715 1.25625L16.7437 5.8285C16.9473 6.032 17.1083 6.27008 17.227 6.54275C17.3457 6.81525 17.405 7.102 17.405 7.403V19.192C17.405 19.7993 17.1887 20.3184 16.756 20.7493C16.3233 21.1803 15.802 21.3958 15.192 21.3958H2.808ZM10.3752 6.47275C10.3752 6.78108 10.4818 7.04183 10.695 7.255C10.9082 7.46817 11.1689 7.57475 11.4773 7.57475H15.192L10.3752 2.808V6.47275ZM8.16675 14.0773V16.3938C8.16675 16.6299 8.24683 16.8278 8.407 16.9875C8.56733 17.1473 8.766 17.2273 9.003 17.2273C9.23983 17.2273 9.43741 17.1473 9.59575 16.9875C9.75408 16.8278 9.83325 16.6299 9.83325 16.3938V14.0773H12.1667C12.4027 14.0773 12.6007 13.9971 12.7605 13.8368C12.9202 13.6764 13 13.4778 13 13.241C13 13.004 12.9202 12.8063 12.7605 12.648C12.6007 12.4897 12.4027 12.4105 12.1667 12.4105H9.83325V10.0773C9.83325 9.84109 9.75317 9.64317 9.593 9.4835C9.43266 9.32367 9.234 9.24375 8.997 9.24375C8.76017 9.24375 8.56258 9.32367 8.40425 9.4835C8.24591 9.64317 8.16675 9.84109 8.16675 10.0773V12.4105H5.83325C5.59725 12.4105 5.39933 12.4907 5.2395 12.651C5.07983 12.8112 5 13.0098 5 13.2468C5 13.4838 5.07983 13.6814 5.2395 13.8398C5.39933 13.9981 5.59725 14.0773 5.83325 14.0773H8.16675Z" fill="#5F738C"/>
</svg>
