<svg width="24" height="13" viewBox="0 0 24 13" fill="none" xmlns="http://www.w3.org/2000/svg">
<path d="M0.84472 13C0.612836 13 0.414079 12.9117 0.248447 12.7352C0.0828157 12.5587 0 12.3469 0 12.0997V11.5173C0 10.7936 0.347826 10.2155 1.04348 9.78305C1.73913 9.3506 2.65839 9.13437 3.80124 9.13437C3.96687 9.13437 4.13665 9.13878 4.31056 9.14761C4.48447 9.15644 4.64596 9.16967 4.79503 9.18733C4.66253 9.50504 4.56315 9.83159 4.49689 10.167C4.43064 10.5023 4.39752 10.8553 4.39752 11.226V13H0.84472ZM19.6025 13V11.226C19.6025 10.8553 19.5694 10.5023 19.5031 10.167C19.4369 9.83159 19.3375 9.50504 19.205 9.18733C19.354 9.16967 19.5155 9.15644 19.6894 9.14761C19.8634 9.13878 20.0331 9.13437 20.1988 9.13437C21.3251 9.13437 22.2402 9.3506 22.9441 9.78305C23.648 10.2155 24 10.7936 24 11.5173V12.0997C24 12.3469 23.9172 12.5587 23.7516 12.7352C23.5859 12.9117 23.3872 13 23.1553 13H19.6025ZM3.80124 8.36655C3.30435 8.36655 2.88199 8.18122 2.53416 7.81054C2.18634 7.43987 2.01242 6.98977 2.01242 6.46024C2.01242 5.93071 2.18634 5.4806 2.53416 5.10993C2.88199 4.73926 3.30435 4.55392 3.80124 4.55392C4.29814 4.55392 4.7205 4.73926 5.06832 5.10993C5.41615 5.4806 5.59006 5.93071 5.59006 6.46024C5.59006 6.98977 5.41615 7.43987 5.06832 7.81054C4.7205 8.18122 4.29814 8.36655 3.80124 8.36655ZM20.1988 8.36655C19.7019 8.36655 19.2795 8.18122 18.9317 7.81054C18.5839 7.43987 18.4099 6.98977 18.4099 6.46024C18.4099 5.93071 18.5839 5.4806 18.9317 5.10993C19.2795 4.73926 19.7019 4.55392 20.1988 4.55392C20.6957 4.55392 21.118 4.73926 21.4658 5.10993C21.8137 5.4806 21.9876 5.93071 21.9876 6.46024C21.9876 6.98977 21.8137 7.43987 21.4658 7.81054C21.118 8.18122 20.6957 8.36655 20.1988 8.36655Z" fill="#5F738C"/>
<path d="M6.21115 12.7352C6.37679 12.9117 6.57554 13 6.80743 13H17.1925C17.4244 13 17.6232 12.9117 17.7888 12.7352C17.9544 12.5587 18.0372 12.3469 18.0372 12.0998V11.2261C18.0372 10.0611 17.4824 9.11235 16.3726 8.37984C15.2629 7.64732 13.8054 7.28106 12 7.28106C10.1946 7.28106 8.73703 7.64732 7.6273 8.37984C6.51757 9.11235 5.96271 10.0611 5.96271 11.2261V12.0998C5.96271 12.3469 6.04552 12.5587 6.21115 12.7352Z" fill="#5F738C"/>
<path d="M9.83848 5.54684C10.4348 6.17346 11.1553 6.48676 12 6.48676C12.8447 6.48676 13.5652 6.17346 14.1615 5.54684C14.7577 4.92023 15.0559 4.148 15.0559 3.23014C15.0559 2.32994 14.7577 1.56653 14.1615 0.939918C13.5652 0.313306 12.8447 0 12 0C11.1553 0 10.4348 0.313306 9.83848 0.939918C9.24221 1.56653 8.94407 2.32994 8.94407 3.23014C8.94407 4.148 9.24221 4.92023 9.83848 5.54684Z" fill="#5F738C"/>
</svg>
